<svg xmlns="http://www.w3.org/2000/svg" viewBox="0 0 1200 640" font-family="'Segoe UI',system-ui,sans-serif">
  <defs>
    <!-- Background -->
    <linearGradient id="bg" x1="0" y1="0" x2="1" y2="1" gradientUnits="objectBoundingBox">
      <stop offset="0%" stop-color="#0d1117"/>
      <stop offset="100%" stop-color="#0f1a2e"/>
    </linearGradient>
    <pattern id="dots" x="0" y="0" width="24" height="24" patternUnits="userSpaceOnUse">
      <circle cx="1" cy="1" r="1" fill="#1e3a5f" opacity="0.4"/>
    </pattern>
    <!-- Status node fills -->
    <linearGradient id="gd" x1="0" y1="0" x2="0" y2="1" gradientUnits="objectBoundingBox">
      <stop offset="0%" stop-color="#16a34a"/><stop offset="100%" stop-color="#15803d"/>
    </linearGradient>
    <linearGradient id="gn" x1="0" y1="0" x2="0" y2="1" gradientUnits="objectBoundingBox">
      <stop offset="0%" stop-color="#d97706"/><stop offset="100%" stop-color="#b45309"/>
    </linearGradient>
    <linearGradient id="gp" x1="0" y1="0" x2="0" y2="1" gradientUnits="objectBoundingBox">
      <stop offset="0%" stop-color="#374151"/><stop offset="100%" stop-color="#1f2937"/>
    </linearGradient>
    <linearGradient id="gi" x1="0" y1="0" x2="0" y2="1" gradientUnits="objectBoundingBox">
      <stop offset="0%" stop-color="#ea580c"/><stop offset="100%" stop-color="#c2410c"/>
    </linearGradient>
    <!-- Card backgrounds -->
    <linearGradient id="cd" x1="0" y1="0" x2="0" y2="1" gradientUnits="objectBoundingBox">
      <stop offset="0%" stop-color="#052e16"/><stop offset="100%" stop-color="#0c1a2e"/>
    </linearGradient>
    <linearGradient id="cp" x1="0" y1="0" x2="0" y2="1" gradientUnits="objectBoundingBox">
      <stop offset="0%" stop-color="#111827"/><stop offset="100%" stop-color="#0a0f1e"/>
    </linearGradient>
    <linearGradient id="ci" x1="0" y1="0" x2="0" y2="1" gradientUnits="objectBoundingBox">
      <stop offset="0%" stop-color="#431407"/><stop offset="100%" stop-color="#0c1a2e"/>
    </linearGradient>
    <!-- Glow filters -->
    <filter id="fd" x="-50%" y="-50%" width="200%" height="200%">
      <feDropShadow dx="0" dy="0" stdDeviation="7" flood-color="#22c55e" flood-opacity="0.65"/>
    </filter>
    <filter id="fn" x="-50%" y="-50%" width="200%" height="200%">
      <feDropShadow dx="0" dy="0" stdDeviation="7" flood-color="#f59e0b" flood-opacity="0.65"/>
    </filter>
    <filter id="fp" x="-50%" y="-50%" width="200%" height="200%">
      <feDropShadow dx="0" dy="0" stdDeviation="4" flood-color="#6b7280" flood-opacity="0.4"/>
    </filter>
    <filter id="fi" x="-50%" y="-50%" width="200%" height="200%">
      <feDropShadow dx="0" dy="0" stdDeviation="7" flood-color="#f97316" flood-opacity="0.65"/>
    </filter>
    <filter id="fs" x="-5%" y="-10%" width="110%" height="130%">
      <feDropShadow dx="0" dy="4" stdDeviation="6" flood-color="#000" flood-opacity="0.5"/>
    </filter>
  </defs>

  <!-- BG -->
  <rect width="1200" height="640" fill="url(#bg)"/>
  <rect width="1200" height="640" fill="url(#dots)"/>
  <rect x="0" y="0" width="1200" height="3" fill="url(#gn)" opacity="0.85"/>

  <!-- ══════ TITLE ══════ -->
  <text x="600" y="34" text-anchor="middle" font-size="20" font-weight="700" fill="#f1f5f9" letter-spacing="0.5">&#x1F5FA;&#xFE0F;  genome-pocket — Roadmap</text>

  <!-- ══════ SECTION 1: cocoindex phases ══════ -->
  <rect x="28" y="48" width="1144" height="30" rx="6" fill="#0d1f35" stroke="#1e3a5f" stroke-width="1.2"/>
  <text x="600" y="68" text-anchor="middle" font-size="11" font-weight="600" fill="#7dd3fc" letter-spacing="3">COCOINDEX  MIGRATION  PHASES  —  P0 → P8</text>

  <!-- Timeline segments: P0..P7 done (green), P7..P8 in progress (orange dashed) -->
  <line x1="92" y1="128" x2="981" y2="128" stroke="#22c55e" stroke-width="2.5" opacity="0.75"/>
  <line x1="981" y1="128" x2="1108" y2="128" stroke="#f97316" stroke-width="2" stroke-dasharray="7,4" opacity="0.85"/>

  <!-- ── P0 done ── -->
  <line x1="92" y1="147" x2="92" y2="154" stroke="#22c55e" stroke-width="1.5" opacity="0.65"/>
  <circle cx="92" cy="128" r="16" fill="url(#gd)" filter="url(#fd)"/>
  <text x="92" y="132" text-anchor="middle" font-size="10" font-weight="700" fill="#fff">P0</text>
  <rect x="33" y="154" width="118" height="102" rx="8" fill="url(#cd)" stroke="#22c55e" stroke-width="1.3" filter="url(#fs)"/>
  <rect x="35" y="155" width="4" height="86" rx="2" fill="#22c55e" opacity="0.65"/>
  <text x="92" y="174" text-anchor="middle" font-size="9.5" font-weight="700" fill="#4ade80">Test Infra</text>
  <text x="92" y="190" text-anchor="middle" font-size="8" fill="#86efac">MockEmbedder patch</text>
  <text x="92" y="204" text-anchor="middle" font-size="8" fill="#86efac">169 tests · offline</text>
  <text x="92" y="218" text-anchor="middle" font-size="8" fill="#86efac">run_tests.sh &lt; 10 s</text>
  <rect x="52" y="231" width="80" height="16" rx="8" fill="#16a34a" opacity="0.85"/>
  <text x="92" y="242" text-anchor="middle" font-size="8" font-weight="600" fill="#fff">&#x2705; done</text>

  <!-- ── P1 done ── -->
  <line x1="219" y1="147" x2="219" y2="154" stroke="#22c55e" stroke-width="1.5" opacity="0.65"/>
  <circle cx="219" cy="128" r="16" fill="url(#gd)" filter="url(#fd)"/>
  <text x="219" y="132" text-anchor="middle" font-size="10" font-weight="700" fill="#fff">P1</text>
  <rect x="160" y="154" width="118" height="102" rx="8" fill="url(#cd)" stroke="#22c55e" stroke-width="1.3" filter="url(#fs)"/>
  <rect x="162" y="155" width="4" height="86" rx="2" fill="#22c55e" opacity="0.65"/>
  <text x="219" y="174" text-anchor="middle" font-size="9.5" font-weight="700" fill="#4ade80">Fingerprinting</text>
  <text x="219" y="190" text-anchor="middle" font-size="8" fill="#86efac">connectorkits</text>
  <text x="219" y="204" text-anchor="middle" font-size="8" fill="#86efac">.fingerprint hash</text>
  <text x="219" y="218" text-anchor="middle" font-size="8" fill="#86efac">replaces SHA-256</text>
  <rect x="179" y="231" width="80" height="16" rx="8" fill="#16a34a" opacity="0.85"/>
  <text x="219" y="242" text-anchor="middle" font-size="8" font-weight="600" fill="#fff">&#x2705; done</text>

  <!-- ── P2 done ── -->
  <line x1="346" y1="147" x2="346" y2="154" stroke="#22c55e" stroke-width="1.5" opacity="0.65"/>
  <circle cx="346" cy="128" r="16" fill="url(#gd)" filter="url(#fd)"/>
  <text x="346" y="132" text-anchor="middle" font-size="10" font-weight="700" fill="#fff">P2</text>
  <rect x="287" y="154" width="118" height="102" rx="8" fill="url(#cd)" stroke="#22c55e" stroke-width="1.3" filter="url(#fs)"/>
  <rect x="289" y="155" width="4" height="86" rx="2" fill="#22c55e" opacity="0.65"/>
  <text x="346" y="174" text-anchor="middle" font-size="9.5" font-weight="700" fill="#4ade80">Concurrent map()</text>
  <text x="346" y="190" text-anchor="middle" font-size="8" fill="#86efac">asyncio.gather</text>
  <text x="346" y="204" text-anchor="middle" font-size="8" fill="#86efac">replaces seq. loop</text>
  <text x="346" y="218" text-anchor="middle" font-size="8" fill="#86efac">cocoindex contract</text>
  <rect x="306" y="231" width="80" height="16" rx="8" fill="#16a34a" opacity="0.85"/>
  <text x="346" y="242" text-anchor="middle" font-size="8" font-weight="600" fill="#fff">&#x2705; done</text>

  <!-- ── P3 done ── -->
  <line x1="473" y1="147" x2="473" y2="154" stroke="#22c55e" stroke-width="1.5" opacity="0.65"/>
  <circle cx="473" cy="128" r="16" fill="url(#gd)" filter="url(#fd)"/>
  <text x="473" y="132" text-anchor="middle" font-size="10" font-weight="700" fill="#fff">P3</text>
  <rect x="414" y="154" width="118" height="102" rx="8" fill="url(#cd)" stroke="#22c55e" stroke-width="1.3" filter="url(#fs)"/>
  <rect x="416" y="155" width="4" height="86" rx="2" fill="#22c55e" opacity="0.65"/>
  <text x="473" y="174" text-anchor="middle" font-size="9.5" font-weight="700" fill="#4ade80">list_concepts MCP</text>
  <text x="473" y="190" text-anchor="middle" font-size="8" fill="#86efac">live graph query</text>
  <text x="473" y="204" text-anchor="middle" font-size="8" fill="#86efac">list_graph_concepts()</text>
  <text x="473" y="218" text-anchor="middle" font-size="8" fill="#86efac">POCKET_GRAPH=1</text>
  <rect x="433" y="231" width="80" height="16" rx="8" fill="#16a34a" opacity="0.85"/>
  <text x="473" y="242" text-anchor="middle" font-size="8" font-weight="600" fill="#fff">&#x2705; done</text>

  <!-- ── P4 done ── -->
  <line x1="600" y1="147" x2="600" y2="154" stroke="#22c55e" stroke-width="1.5" opacity="0.65"/>
  <circle cx="600" cy="128" r="16" fill="url(#gd)" filter="url(#fd)"/>
  <text x="600" y="132" text-anchor="middle" font-size="10" font-weight="700" fill="#fff">P4</text>
  <rect x="541" y="154" width="118" height="102" rx="8" fill="url(#cd)" stroke="#22c55e" stroke-width="1.3" filter="url(#fs)"/>
  <rect x="543" y="155" width="4" height="86" rx="2" fill="#22c55e" opacity="0.65"/>
  <text x="600" y="174" text-anchor="middle" font-size="9.5" font-weight="700" fill="#4ade80">State-diff &#x0394; writes</text>
  <text x="600" y="190" text-anchor="middle" font-size="8" fill="#86efac">statediff.diff per row</text>
  <text x="600" y="204" text-anchor="middle" font-size="8" fill="#86efac">insert / replace / skip</text>
  <text x="600" y="218" text-anchor="middle" font-size="8" fill="#86efac">row_writes / skips</text>
  <rect x="560" y="231" width="80" height="16" rx="8" fill="#16a34a" opacity="0.85"/>
  <text x="600" y="242" text-anchor="middle" font-size="8" font-weight="600" fill="#fff">&#x2705; done</text>

  <!-- ── P5 done ── -->
  <line x1="727" y1="147" x2="727" y2="154" stroke="#22c55e" stroke-width="1.5" opacity="0.65"/>
  <circle cx="727" cy="128" r="16" fill="url(#gd)" filter="url(#fd)"/>
  <text x="727" y="132" text-anchor="middle" font-size="10" font-weight="700" fill="#fff">P5</text>
  <rect x="668" y="154" width="118" height="102" rx="8" fill="url(#cd)" stroke="#22c55e" stroke-width="1.3" filter="url(#fs)"/>
  <rect x="670" y="155" width="4" height="86" rx="2" fill="#22c55e" opacity="0.65"/>
  <text x="727" y="174" text-anchor="middle" font-size="9.5" font-weight="700" fill="#4ade80">Logic-fp Memo</text>
  <text x="727" y="190" text-anchor="middle" font-size="8" fill="#86efac">SQLite-persistent</text>
  <text x="727" y="204" text-anchor="middle" font-size="8" fill="#86efac">logic fp in memo key</text>
  <text x="727" y="218" text-anchor="middle" font-size="8" fill="#86efac">invalidates stale</text>
  <rect x="687" y="231" width="80" height="16" rx="8" fill="#16a34a" opacity="0.85"/>
  <text x="727" y="242" text-anchor="middle" font-size="8" font-weight="600" fill="#fff">&#x2705; done</text>

  <!-- ── P6 done ── -->
  <line x1="854" y1="147" x2="854" y2="154" stroke="#22c55e" stroke-width="1.5" opacity="0.65"/>
  <circle cx="854" cy="128" r="16" fill="url(#gd)" filter="url(#fd)"/>
  <text x="854" y="132" text-anchor="middle" font-size="10" font-weight="700" fill="#fff">P6</text>
  <rect x="795" y="154" width="118" height="102" rx="8" fill="url(#cd)" stroke="#22c55e" stroke-width="1.3" filter="url(#fs)"/>
  <rect x="797" y="155" width="4" height="86" rx="2" fill="#22c55e" opacity="0.65"/>
  <text x="854" y="174" text-anchor="middle" font-size="9.5" font-weight="700" fill="#4ade80">full_reprocess</text>
  <text x="854" y="190" text-anchor="middle" font-size="8" fill="#86efac">force clean rebuild</text>
  <text x="854" y="204" text-anchor="middle" font-size="8" fill="#86efac">bypasses memo path</text>
  <text x="854" y="218" text-anchor="middle" font-size="8" fill="#86efac">--full-reprocess</text>
  <rect x="814" y="231" width="80" height="16" rx="8" fill="#16a34a" opacity="0.85"/>
  <text x="854" y="242" text-anchor="middle" font-size="8" font-weight="600" fill="#fff">&#x2705; done</text>

  <!-- ── P7 done ── -->
  <line x1="981" y1="147" x2="981" y2="154" stroke="#22c55e" stroke-width="1.5" opacity="0.65"/>
  <circle cx="981" cy="128" r="16" fill="url(#gd)" filter="url(#fd)"/>
  <text x="981" y="132" text-anchor="middle" font-size="10" font-weight="700" fill="#fff">P7</text>
  <rect x="922" y="154" width="118" height="102" rx="8" fill="url(#cd)" stroke="#22c55e" stroke-width="1.3" filter="url(#fs)"/>
  <rect x="924" y="155" width="4" height="86" rx="2" fill="#22c55e" opacity="0.65"/>
  <text x="981" y="174" text-anchor="middle" font-size="9.5" font-weight="700" fill="#4ade80">Live-mode push</text>
  <text x="981" y="190" text-anchor="middle" font-size="8" fill="#86efac">change-driven index</text>
  <text x="981" y="204" text-anchor="middle" font-size="8" fill="#86efac">register_source +</text>
  <text x="981" y="218" text-anchor="middle" font-size="8" fill="#86efac">signature() stat map</text>
  <rect x="941" y="231" width="80" height="16" rx="8" fill="#16a34a" opacity="0.85"/>
  <text x="981" y="242" text-anchor="middle" font-size="8" font-weight="600" fill="#fff">&#x2705; done</text>

  <!-- ── P8 in progress ── -->
  <line x1="1108" y1="147" x2="1108" y2="154" stroke="#f97316" stroke-width="1.5" opacity="0.7"/>
  <circle cx="1108" cy="128" r="16" fill="url(#gi)" filter="url(#fi)"/>
  <text x="1108" y="132" text-anchor="middle" font-size="10" font-weight="700" fill="#fff">P8</text>
  <rect x="1049" y="154" width="118" height="102" rx="8" fill="url(#ci)" stroke="#f97316" stroke-width="1.3" filter="url(#fs)"/>
  <rect x="1051" y="155" width="4" height="86" rx="2" fill="#f97316" opacity="0.7"/>
  <text x="1108" y="174" text-anchor="middle" font-size="9.5" font-weight="700" fill="#fdba74">Native cocoindex</text>
  <text x="1108" y="190" text-anchor="middle" font-size="8" fill="#fed7aa">pipeline_native.py</text>
  <text x="1108" y="204" text-anchor="middle" font-size="8" fill="#fed7aa">real coco ops wired</text>
  <text x="1108" y="218" text-anchor="middle" font-size="8" fill="#fed7aa">POCKET_PIPELINE=native</text>
  <rect x="1062" y="231" width="92" height="16" rx="8" fill="#ea580c" opacity="0.9"/>
  <text x="1108" y="242" text-anchor="middle" font-size="8" font-weight="600" fill="#fff">&#x1F6A7; in progress</text>

  <!-- ══════ SECTION 2: 2026 SOTA ══════ -->
  <rect x="28" y="270" width="1144" height="30" rx="6" fill="#0d1f35" stroke="#1e3a5f" stroke-width="1.2"/>
  <text x="600" y="290" text-anchor="middle" font-size="11" font-weight="600" fill="#7dd3fc" letter-spacing="3">2026  SOTA  IMPROVEMENTS  &#x26A1;  (ALL SHIPPED)</text>

  <!-- Row 1: POCKET-601..604  x=53,331,609,887  w=260 h=108 -->

  <!-- 601 Cross-encoder Reranker -->
  <rect x="53" y="312" width="260" height="108" rx="9" fill="url(#cd)" stroke="#22c55e" stroke-width="1.5" filter="url(#fs)"/>
  <rect x="55" y="313" width="4" height="90" rx="2" fill="#22c55e" opacity="0.7"/>
  <rect x="283" y="317" width="24" height="15" rx="7" fill="#f59e0b"/>
  <text x="295" y="328" text-anchor="middle" font-size="9" font-weight="700" fill="#000">&#x26A1;</text>
  <text x="183" y="335" text-anchor="middle" font-size="11" font-weight="700" fill="#4ade80">Cross-encoder Reranker</text>
  <text x="183" y="350" text-anchor="middle" font-size="8.5" fill="#6ee7b7">POCKET-601</text>
  <text x="183" y="365" text-anchor="middle" font-size="9" fill="#a3e635">sentence_transformers.CrossEncoder</text>
  <text x="183" y="379" text-anchor="middle" font-size="9" fill="#86efac">precision pass after RRF</text>
  <rect x="68" y="392" width="230" height="18" rx="9" fill="#0a1628" stroke="#22c55e" stroke-width="0.8"/>
  <text x="183" y="404" text-anchor="middle" font-size="8.5" fill="#4ade80" font-family="'Courier New',monospace">POCKET_RERANKER=1  ·  --rerank</text>

  <!-- 602 HyDE -->
  <rect x="331" y="312" width="260" height="108" rx="9" fill="url(#cd)" stroke="#22c55e" stroke-width="1.5" filter="url(#fs)"/>
  <rect x="333" y="313" width="4" height="90" rx="2" fill="#22c55e" opacity="0.7"/>
  <rect x="561" y="317" width="24" height="15" rx="7" fill="#f59e0b"/>
  <text x="573" y="328" text-anchor="middle" font-size="9" font-weight="700" fill="#000">&#x26A1;</text>
  <text x="461" y="335" text-anchor="middle" font-size="11" font-weight="700" fill="#4ade80">HyDE Expansion</text>
  <text x="461" y="350" text-anchor="middle" font-size="8.5" fill="#6ee7b7">POCKET-602</text>
  <text x="461" y="365" text-anchor="middle" font-size="9" fill="#a3e635">Ollama hypothetical-doc embed</text>
  <text x="461" y="379" text-anchor="middle" font-size="9" fill="#86efac">vector search pre-pass</text>
  <rect x="346" y="392" width="230" height="18" rx="9" fill="#0a1628" stroke="#22c55e" stroke-width="0.8"/>
  <text x="461" y="404" text-anchor="middle" font-size="8.5" fill="#4ade80" font-family="'Courier New',monospace">POCKET_HYDE=1  ·  --hyde</text>

  <!-- 603 Semantic Chunking -->
  <rect x="609" y="312" width="260" height="108" rx="9" fill="url(#cd)" stroke="#22c55e" stroke-width="1.5" filter="url(#fs)"/>
  <rect x="611" y="313" width="4" height="90" rx="2" fill="#22c55e" opacity="0.7"/>
  <rect x="839" y="317" width="24" height="15" rx="7" fill="#f59e0b"/>
  <text x="851" y="328" text-anchor="middle" font-size="9" font-weight="700" fill="#000">&#x26A1;</text>
  <text x="739" y="335" text-anchor="middle" font-size="11" font-weight="700" fill="#4ade80">Semantic Chunking</text>
  <text x="739" y="350" text-anchor="middle" font-size="8.5" fill="#6ee7b7">POCKET-603</text>
  <text x="739" y="365" text-anchor="middle" font-size="9" fill="#a3e635">SemanticSplitter · embedding-guided</text>
  <text x="739" y="379" text-anchor="middle" font-size="9" fill="#86efac">boundary detection for prose</text>
  <rect x="624" y="392" width="230" height="18" rx="9" fill="#0a1628" stroke="#22c55e" stroke-width="0.8"/>
  <text x="739" y="404" text-anchor="middle" font-size="8.5" fill="#4ade80" font-family="'Courier New',monospace">POCKET_SEMANTIC_SPLIT=1</text>

  <!-- 604 LLM-as-Judge -->
  <rect x="887" y="312" width="260" height="108" rx="9" fill="url(#cd)" stroke="#22c55e" stroke-width="1.5" filter="url(#fs)"/>
  <rect x="889" y="313" width="4" height="90" rx="2" fill="#22c55e" opacity="0.7"/>
  <rect x="1117" y="317" width="24" height="15" rx="7" fill="#f59e0b"/>
  <text x="1129" y="328" text-anchor="middle" font-size="9" font-weight="700" fill="#000">&#x26A1;</text>
  <text x="1017" y="335" text-anchor="middle" font-size="11" font-weight="700" fill="#4ade80">LLM-as-Judge Eval</text>
  <text x="1017" y="350" text-anchor="middle" font-size="8.5" fill="#6ee7b7">POCKET-604</text>
  <text x="1017" y="365" text-anchor="middle" font-size="9" fill="#a3e635">RAGAS-style Faithfulness + Relevance</text>
  <text x="1017" y="379" text-anchor="middle" font-size="9" fill="#86efac">local Ollama scoring</text>
  <rect x="902" y="392" width="230" height="18" rx="9" fill="#0a1628" stroke="#22c55e" stroke-width="0.8"/>
  <text x="1017" y="404" text-anchor="middle" font-size="8.5" fill="#4ade80" font-family="'Courier New',monospace">pocket eval --with-judge</text>

  <!-- Row 2: POCKET-605..607  x=192,470,748  w=260 h=108 -->

  <!-- 605 Schema JSON -->
  <rect x="192" y="434" width="260" height="108" rx="9" fill="url(#cd)" stroke="#22c55e" stroke-width="1.5" filter="url(#fs)"/>
  <rect x="194" y="435" width="4" height="90" rx="2" fill="#22c55e" opacity="0.7"/>
  <rect x="422" y="439" width="24" height="15" rx="7" fill="#f59e0b"/>
  <text x="434" y="450" text-anchor="middle" font-size="9" font-weight="700" fill="#000">&#x26A1;</text>
  <text x="322" y="457" text-anchor="middle" font-size="11" font-weight="700" fill="#4ade80">Schema JSON</text>
  <text x="322" y="472" text-anchor="middle" font-size="8.5" fill="#6ee7b7">POCKET-605</text>
  <text x="322" y="487" text-anchor="middle" font-size="9" fill="#a3e635">Ollama &#x2265; 0.3.0 · format:{schema}</text>
  <text x="322" y="501" text-anchor="middle" font-size="9" fill="#86efac">grammar-constrained decoding</text>
  <rect x="207" y="514" width="230" height="18" rx="9" fill="#0a1628" stroke="#22c55e" stroke-width="0.8"/>
  <text x="322" y="526" text-anchor="middle" font-size="8.5" fill="#4ade80" font-family="'Courier New',monospace">OllamaExtractor · format=schema</text>

  <!-- 606 LanceDB (planned) -->
  <rect x="470" y="434" width="260" height="108" rx="9" fill="url(#cp)" stroke="#4b5563" stroke-width="1.5" filter="url(#fs)"/>
  <rect x="472" y="435" width="4" height="90" rx="2" fill="#4b5563" opacity="0.65"/>
  <text x="600" y="457" text-anchor="middle" font-size="11" font-weight="700" fill="#d1d5db">LanceDB Connector</text>
  <text x="600" y="472" text-anchor="middle" font-size="8.5" fill="#9ca3af">POCKET-606</text>
  <text x="600" y="487" text-anchor="middle" font-size="9" fill="#9ca3af">Columnar vector store</text>
  <text x="600" y="501" text-anchor="middle" font-size="9" fill="#9ca3af">large corpora &gt; 1 M chunks</text>
  <rect x="485" y="514" width="230" height="18" rx="9" fill="#1f2937" stroke="#4b5563" stroke-width="0.8"/>
  <text x="600" y="526" text-anchor="middle" font-size="8.5" fill="#9ca3af" font-family="'Courier New',monospace">&#x23F3;  planned</text>

  <!-- 607 GraphRAG Community (planned) -->
  <rect x="748" y="434" width="260" height="108" rx="9" fill="url(#cp)" stroke="#4b5563" stroke-width="1.5" filter="url(#fs)"/>
  <rect x="750" y="435" width="4" height="90" rx="2" fill="#4b5563" opacity="0.65"/>
  <text x="878" y="457" text-anchor="middle" font-size="11" font-weight="700" fill="#d1d5db">GraphRAG Community</text>
  <text x="878" y="472" text-anchor="middle" font-size="8.5" fill="#9ca3af">POCKET-607</text>
  <text x="878" y="487" text-anchor="middle" font-size="9" fill="#9ca3af">Leiden algorithm · entity graph</text>
  <text x="878" y="501" text-anchor="middle" font-size="9" fill="#9ca3af">community-level summaries</text>
  <rect x="763" y="514" width="230" height="18" rx="9" fill="#1f2937" stroke="#4b5563" stroke-width="0.8"/>
  <text x="878" y="526" text-anchor="middle" font-size="8.5" fill="#9ca3af" font-family="'Courier New',monospace">&#x23F3;  planned</text>

  <!-- ══════ LEGEND ══════ -->
  <rect x="28" y="558" width="1144" height="42" rx="6" fill="#0a0f1e" stroke="#1e3a5f" stroke-width="1" opacity="0.9"/>
  <circle cx="72"  cy="579" r="7" fill="url(#gd)" filter="url(#fd)"/>
  <text x="87"  y="583" font-size="9.5" fill="#4ade80">&#x2705; done</text>
  <circle cx="240" cy="579" r="7" fill="url(#gi)" filter="url(#fi)"/>
  <text x="255" y="583" font-size="9.5" fill="#fb923c">&#x1F6A7; in progress</text>
  <circle cx="400" cy="579" r="7" fill="url(#gp)" filter="url(#fp)"/>
  <text x="415" y="583" font-size="9.5" fill="#9ca3af">&#x23F3; planned</text>
  <rect x="540" y="571" width="22" height="15" rx="7" fill="#f59e0b"/>
  <text x="551" y="582" text-anchor="middle" font-size="9" font-weight="700" fill="#000">&#x26A1;</text>
  <text x="569" y="583" font-size="9.5" fill="#fde68a">SOTA opt-in feature</text>
  <text x="950" y="583" text-anchor="middle" font-size="9" fill="#475569">docs/architecture/cocoindex-gap.md</text>

  <!-- footer line -->
  <text x="600" y="618" text-anchor="middle" font-size="8.5" fill="#334155">genome-pocket · 2026 · vector SVG — zoom freely</text>
</svg>
