<svg xmlns="http://www.w3.org/2000/svg" viewBox="0 0 1200 640" font-family="'Segoe UI',system-ui,sans-serif">
  <defs>
    <!-- Background -->
    <linearGradient id="bg" x1="0" y1="0" x2="1" y2="1" gradientUnits="objectBoundingBox">
      <stop offset="0%" stop-color="#0d1117"/>
      <stop offset="100%" stop-color="#0f1a2e"/>
    </linearGradient>
    <pattern id="dots" x="0" y="0" width="24" height="24" patternUnits="userSpaceOnUse">
      <circle cx="1" cy="1" r="1" fill="#1e3a5f" opacity="0.4"/>
    </pattern>
    <!-- Status node fills -->
    <linearGradient id="gd" x1="0" y1="0" x2="0" y2="1" gradientUnits="objectBoundingBox">
      <stop offset="0%" stop-color="#16a34a"/><stop offset="100%" stop-color="#15803d"/>
    </linearGradient>
    <linearGradient id="gn" x1="0" y1="0" x2="0" y2="1" gradientUnits="objectBoundingBox">
      <stop offset="0%" stop-color="#d97706"/><stop offset="100%" stop-color="#b45309"/>
    </linearGradient>
    <linearGradient id="gp" x1="0" y1="0" x2="0" y2="1" gradientUnits="objectBoundingBox">
      <stop offset="0%" stop-color="#374151"/><stop offset="100%" stop-color="#1f2937"/>
    </linearGradient>
    <linearGradient id="gi" x1="0" y1="0" x2="0" y2="1" gradientUnits="objectBoundingBox">
      <stop offset="0%" stop-color="#ea580c"/><stop offset="100%" stop-color="#c2410c"/>
    </linearGradient>
    <!-- Card backgrounds -->
    <linearGradient id="cd" x1="0" y1="0" x2="0" y2="1" gradientUnits="objectBoundingBox">
      <stop offset="0%" stop-color="#052e16"/><stop offset="100%" stop-color="#0c1a2e"/>
    </linearGradient>
    <linearGradient id="cp" x1="0" y1="0" x2="0" y2="1" gradientUnits="objectBoundingBox">
      <stop offset="0%" stop-color="#111827"/><stop offset="100%" stop-color="#0a0f1e"/>
    </linearGradient>
    <!-- Glow filters -->
    <filter id="fd" x="-50%" y="-50%" width="200%" height="200%">
      <feDropShadow dx="0" dy="0" stdDeviation="7" flood-color="#22c55e" flood-opacity="0.65"/>
    </filter>
    <filter id="fn" x="-50%" y="-50%" width="200%" height="200%">
      <feDropShadow dx="0" dy="0" stdDeviation="7" flood-color="#f59e0b" flood-opacity="0.65"/>
    </filter>
    <filter id="fp" x="-50%" y="-50%" width="200%" height="200%">
      <feDropShadow dx="0" dy="0" stdDeviation="4" flood-color="#6b7280" flood-opacity="0.4"/>
    </filter>
    <filter id="fi" x="-50%" y="-50%" width="200%" height="200%">
      <feDropShadow dx="0" dy="0" stdDeviation="7" flood-color="#f97316" flood-opacity="0.65"/>
    </filter>
    <filter id="fs" x="-5%" y="-10%" width="110%" height="130%">
      <feDropShadow dx="0" dy="4" stdDeviation="6" flood-color="#000" flood-opacity="0.5"/>
    </filter>
  </defs>

  <!-- BG -->
  <rect width="1200" height="640" fill="url(#bg)"/>
  <rect width="1200" height="640" fill="url(#dots)"/>
  <rect x="0" y="0" width="1200" height="3" fill="url(#gn)" opacity="0.85"/>

  <!-- ══════ TITLE ══════ -->
  <text x="600" y="34" text-anchor="middle" font-size="20" font-weight="700" fill="#f1f5f9" letter-spacing="0.5">&#x1F5FA;&#xFE0F;  genome-pocket — Roadmap</text>

  <!-- ══════ SECTION 1: cocoindex phases ══════ -->
  <rect x="28" y="48" width="1144" height="30" rx="6" fill="#0d1f35" stroke="#1e3a5f" stroke-width="1.2"/>
  <text x="600" y="68" text-anchor="middle" font-size="11" font-weight="600" fill="#7dd3fc" letter-spacing="3">COCOINDEX  MIGRATION  PHASES  —  P0 → P6</text>

  <!-- Timeline segments -->
  <line x1="86" y1="128" x2="590" y2="128" stroke="#22c55e" stroke-width="2.5" opacity="0.75"/>
  <line x1="590" y1="128" x2="758" y2="128" stroke="#f59e0b" stroke-width="2" stroke-dasharray="7,4" opacity="0.8"/>
  <line x1="758" y1="128" x2="1094" y2="128" stroke="#4b5563" stroke-width="2" stroke-dasharray="7,4" opacity="0.55"/>

  <!-- ── P0 done ── -->
  <line x1="86" y1="147" x2="86" y2="154" stroke="#22c55e" stroke-width="1.5" opacity="0.65"/>
  <circle cx="86" cy="128" r="18" fill="url(#gd)" filter="url(#fd)"/>
  <text x="86" y="133" text-anchor="middle" font-size="10.5" font-weight="700" fill="#fff">P0</text>
  <rect x="9" y="154" width="154" height="102" rx="8" fill="url(#cd)" stroke="#22c55e" stroke-width="1.3" filter="url(#fs)"/>
  <rect x="11" y="155" width="4" height="86" rx="2" fill="#22c55e" opacity="0.65"/>
  <text x="86" y="173" text-anchor="middle" font-size="10" font-weight="700" fill="#4ade80">Test Infra</text>
  <text x="86" y="189" text-anchor="middle" font-size="8.5" fill="#86efac">MockEmbedder patch</text>
  <text x="86" y="203" text-anchor="middle" font-size="8.5" fill="#86efac">169 tests · offline</text>
  <text x="86" y="217" text-anchor="middle" font-size="8.5" fill="#86efac">run_tests.sh &lt; 10 s</text>
  <rect x="36" y="231" width="100" height="16" rx="8" fill="#16a34a" opacity="0.85"/>
  <text x="86" y="242" text-anchor="middle" font-size="8" font-weight="600" fill="#fff">&#x2705; done</text>

  <!-- ── P1 done ── -->
  <line x1="254" y1="147" x2="254" y2="154" stroke="#22c55e" stroke-width="1.5" opacity="0.65"/>
  <circle cx="254" cy="128" r="18" fill="url(#gd)" filter="url(#fd)"/>
  <text x="254" y="133" text-anchor="middle" font-size="10.5" font-weight="700" fill="#fff">P1</text>
  <rect x="177" y="154" width="154" height="102" rx="8" fill="url(#cd)" stroke="#22c55e" stroke-width="1.3" filter="url(#fs)"/>
  <rect x="179" y="155" width="4" height="86" rx="2" fill="#22c55e" opacity="0.65"/>
  <text x="254" y="173" text-anchor="middle" font-size="10" font-weight="700" fill="#4ade80">Fingerprinting</text>
  <text x="254" y="189" text-anchor="middle" font-size="8.5" fill="#86efac">cocoindex.connectorkits</text>
  <text x="254" y="203" text-anchor="middle" font-size="8.5" fill="#86efac">.fingerprint module</text>
  <text x="254" y="217" text-anchor="middle" font-size="8.5" fill="#86efac">replaces SHA-256</text>
  <rect x="204" y="231" width="100" height="16" rx="8" fill="#16a34a" opacity="0.85"/>
  <text x="254" y="242" text-anchor="middle" font-size="8" font-weight="600" fill="#fff">&#x2705; done</text>

  <!-- ── P2 done ── -->
  <line x1="422" y1="147" x2="422" y2="154" stroke="#22c55e" stroke-width="1.5" opacity="0.65"/>
  <circle cx="422" cy="128" r="18" fill="url(#gd)" filter="url(#fd)"/>
  <text x="422" y="133" text-anchor="middle" font-size="10.5" font-weight="700" fill="#fff">P2</text>
  <rect x="345" y="154" width="154" height="102" rx="8" fill="url(#cd)" stroke="#22c55e" stroke-width="1.3" filter="url(#fs)"/>
  <rect x="347" y="155" width="4" height="86" rx="2" fill="#22c55e" opacity="0.65"/>
  <text x="422" y="173" text-anchor="middle" font-size="10" font-weight="700" fill="#4ade80">Concurrent map()</text>
  <text x="422" y="189" text-anchor="middle" font-size="8.5" fill="#86efac">asyncio.gather</text>
  <text x="422" y="203" text-anchor="middle" font-size="8.5" fill="#86efac">replaces seq. loop</text>
  <text x="422" y="217" text-anchor="middle" font-size="8.5" fill="#86efac">cocoindex contract</text>
  <rect x="372" y="231" width="100" height="16" rx="8" fill="#16a34a" opacity="0.85"/>
  <text x="422" y="242" text-anchor="middle" font-size="8" font-weight="600" fill="#fff">&#x2705; done</text>

  <!-- ── P3 done ── -->
  <line x1="590" y1="147" x2="590" y2="154" stroke="#22c55e" stroke-width="1.5" opacity="0.65"/>
  <circle cx="590" cy="128" r="18" fill="url(#gd)" filter="url(#fd)"/>
  <text x="590" y="133" text-anchor="middle" font-size="10.5" font-weight="700" fill="#fff">P3</text>
  <rect x="513" y="154" width="154" height="102" rx="8" fill="url(#cd)" stroke="#22c55e" stroke-width="1.3" filter="url(#fs)"/>
  <rect x="515" y="155" width="4" height="86" rx="2" fill="#22c55e" opacity="0.65"/>
  <text x="590" y="173" text-anchor="middle" font-size="10" font-weight="700" fill="#4ade80">list_concepts MCP</text>
  <text x="590" y="189" text-anchor="middle" font-size="8.5" fill="#86efac">live graph query</text>
  <text x="590" y="203" text-anchor="middle" font-size="8.5" fill="#86efac">list_graph_concepts()</text>
  <text x="590" y="217" text-anchor="middle" font-size="8.5" fill="#86efac">POCKET_GRAPH=1</text>
  <rect x="540" y="231" width="100" height="16" rx="8" fill="#16a34a" opacity="0.85"/>
  <text x="590" y="242" text-anchor="middle" font-size="8" font-weight="600" fill="#fff">&#x2705; done</text>

  <!-- ── P4 done ── -->
  <line x1="758" y1="147" x2="758" y2="154" stroke="#22c55e" stroke-width="1.5" opacity="0.65"/>
  <circle cx="758" cy="128" r="18" fill="url(#gd)" filter="url(#fd)"/>
  <text x="758" y="133" text-anchor="middle" font-size="10.5" font-weight="700" fill="#fff">P4</text>
  <rect x="681" y="154" width="154" height="102" rx="8" fill="url(#cd)" stroke="#22c55e" stroke-width="1.3" filter="url(#fs)"/>
  <rect x="683" y="155" width="4" height="86" rx="2" fill="#22c55e" opacity="0.65"/>
  <text x="758" y="173" text-anchor="middle" font-size="10" font-weight="700" fill="#4ade80">State-diff &#x0394; writes</text>
  <text x="758" y="189" text-anchor="middle" font-size="8.5" fill="#86efac">statediff.diff per row</text>
  <text x="758" y="203" text-anchor="middle" font-size="8.5" fill="#86efac">insert / replace / skip</text>
  <text x="758" y="217" text-anchor="middle" font-size="8.5" fill="#86efac">row_writes / row_skips</text>
  <rect x="706" y="231" width="104" height="16" rx="8" fill="#16a34a" opacity="0.85"/>
  <text x="758" y="242" text-anchor="middle" font-size="8" font-weight="600" fill="#fff">&#x2705; done</text>

  <!-- ── P5 done ── -->
  <line x1="926" y1="147" x2="926" y2="154" stroke="#22c55e" stroke-width="1.5" opacity="0.65"/>
  <circle cx="926" cy="128" r="18" fill="url(#gd)" filter="url(#fd)"/>
  <text x="926" y="133" text-anchor="middle" font-size="10.5" font-weight="700" fill="#fff">P5</text>
  <rect x="849" y="154" width="154" height="102" rx="8" fill="url(#cd)" stroke="#22c55e" stroke-width="1.3" filter="url(#fs)"/>
  <rect x="851" y="155" width="4" height="86" rx="2" fill="#22c55e" opacity="0.65"/>
  <text x="926" y="173" text-anchor="middle" font-size="10" font-weight="700" fill="#4ade80">Logic-fp Memo</text>
  <text x="926" y="189" text-anchor="middle" font-size="8.5" fill="#86efac">memo already</text>
  <text x="926" y="203" text-anchor="middle" font-size="8.5" fill="#86efac">SQLite-persistent</text>
  <text x="926" y="217" text-anchor="middle" font-size="8.5" fill="#86efac">logic fp invalidates</text>
  <rect x="872" y="231" width="108" height="16" rx="8" fill="#16a34a" opacity="0.85"/>
  <text x="926" y="242" text-anchor="middle" font-size="8" font-weight="600" fill="#fff">&#x2705; done</text>

  <!-- ── P6 done ── -->
  <line x1="1094" y1="147" x2="1094" y2="154" stroke="#22c55e" stroke-width="1.5" opacity="0.65"/>
  <circle cx="1094" cy="128" r="18" fill="url(#gd)" filter="url(#fd)"/>
  <text x="1094" y="133" text-anchor="middle" font-size="10.5" font-weight="700" fill="#fff">P6</text>
  <rect x="1017" y="154" width="154" height="102" rx="8" fill="url(#cd)" stroke="#22c55e" stroke-width="1.3" filter="url(#fs)"/>
  <rect x="1019" y="155" width="4" height="86" rx="2" fill="#22c55e" opacity="0.65"/>
  <text x="1094" y="173" text-anchor="middle" font-size="10" font-weight="700" fill="#4ade80">full_reprocess</text>
  <text x="1094" y="189" text-anchor="middle" font-size="8.5" fill="#86efac">force clean rebuild</text>
  <text x="1094" y="203" text-anchor="middle" font-size="8.5" fill="#86efac">bypasses memo path</text>
  <text x="1094" y="217" text-anchor="middle" font-size="8.5" fill="#86efac">--full-reprocess</text>
  <rect x="1040" y="231" width="108" height="16" rx="8" fill="#16a34a" opacity="0.85"/>
  <text x="1094" y="242" text-anchor="middle" font-size="8" font-weight="600" fill="#fff">&#x2705; done</text>

  <!-- ══════ SECTION 2: 2026 SOTA ══════ -->
  <rect x="28" y="270" width="1144" height="30" rx="6" fill="#0d1f35" stroke="#1e3a5f" stroke-width="1.2"/>
  <text x="600" y="290" text-anchor="middle" font-size="11" font-weight="600" fill="#7dd3fc" letter-spacing="3">2026  SOTA  IMPROVEMENTS  &#x26A1;  (ALL SHIPPED)</text>

  <!-- Row 1: POCKET-601..604  x=53,331,609,887  w=260 h=108 -->

  <!-- 601 Cross-encoder Reranker -->
  <rect x="53" y="312" width="260" height="108" rx="9" fill="url(#cd)" stroke="#22c55e" stroke-width="1.5" filter="url(#fs)"/>
  <rect x="55" y="313" width="4" height="90" rx="2" fill="#22c55e" opacity="0.7"/>
  <rect x="283" y="317" width="24" height="15" rx="7" fill="#f59e0b"/>
  <text x="295" y="328" text-anchor="middle" font-size="9" font-weight="700" fill="#000">&#x26A1;</text>
  <text x="183" y="335" text-anchor="middle" font-size="11" font-weight="700" fill="#4ade80">Cross-encoder Reranker</text>
  <text x="183" y="350" text-anchor="middle" font-size="8.5" fill="#6ee7b7">POCKET-601</text>
  <text x="183" y="365" text-anchor="middle" font-size="9" fill="#a3e635">sentence_transformers.CrossEncoder</text>
  <text x="183" y="379" text-anchor="middle" font-size="9" fill="#86efac">precision pass after RRF</text>
  <rect x="68" y="392" width="230" height="18" rx="9" fill="#0a1628" stroke="#22c55e" stroke-width="0.8"/>
  <text x="183" y="404" text-anchor="middle" font-size="8.5" fill="#4ade80" font-family="'Courier New',monospace">POCKET_RERANKER=1  ·  --rerank</text>

  <!-- 602 HyDE -->
  <rect x="331" y="312" width="260" height="108" rx="9" fill="url(#cd)" stroke="#22c55e" stroke-width="1.5" filter="url(#fs)"/>
  <rect x="333" y="313" width="4" height="90" rx="2" fill="#22c55e" opacity="0.7"/>
  <rect x="561" y="317" width="24" height="15" rx="7" fill="#f59e0b"/>
  <text x="573" y="328" text-anchor="middle" font-size="9" font-weight="700" fill="#000">&#x26A1;</text>
  <text x="461" y="335" text-anchor="middle" font-size="11" font-weight="700" fill="#4ade80">HyDE Expansion</text>
  <text x="461" y="350" text-anchor="middle" font-size="8.5" fill="#6ee7b7">POCKET-602</text>
  <text x="461" y="365" text-anchor="middle" font-size="9" fill="#a3e635">Ollama hypothetical-doc embed</text>
  <text x="461" y="379" text-anchor="middle" font-size="9" fill="#86efac">vector search pre-pass</text>
  <rect x="346" y="392" width="230" height="18" rx="9" fill="#0a1628" stroke="#22c55e" stroke-width="0.8"/>
  <text x="461" y="404" text-anchor="middle" font-size="8.5" fill="#4ade80" font-family="'Courier New',monospace">POCKET_HYDE=1  ·  --hyde</text>

  <!-- 603 Semantic Chunking -->
  <rect x="609" y="312" width="260" height="108" rx="9" fill="url(#cd)" stroke="#22c55e" stroke-width="1.5" filter="url(#fs)"/>
  <rect x="611" y="313" width="4" height="90" rx="2" fill="#22c55e" opacity="0.7"/>
  <rect x="839" y="317" width="24" height="15" rx="7" fill="#f59e0b"/>
  <text x="851" y="328" text-anchor="middle" font-size="9" font-weight="700" fill="#000">&#x26A1;</text>
  <text x="739" y="335" text-anchor="middle" font-size="11" font-weight="700" fill="#4ade80">Semantic Chunking</text>
  <text x="739" y="350" text-anchor="middle" font-size="8.5" fill="#6ee7b7">POCKET-603</text>
  <text x="739" y="365" text-anchor="middle" font-size="9" fill="#a3e635">SemanticSplitter · embedding-guided</text>
  <text x="739" y="379" text-anchor="middle" font-size="9" fill="#86efac">boundary detection for prose</text>
  <rect x="624" y="392" width="230" height="18" rx="9" fill="#0a1628" stroke="#22c55e" stroke-width="0.8"/>
  <text x="739" y="404" text-anchor="middle" font-size="8.5" fill="#4ade80" font-family="'Courier New',monospace">POCKET_SEMANTIC_SPLIT=1</text>

  <!-- 604 LLM-as-Judge -->
  <rect x="887" y="312" width="260" height="108" rx="9" fill="url(#cd)" stroke="#22c55e" stroke-width="1.5" filter="url(#fs)"/>
  <rect x="889" y="313" width="4" height="90" rx="2" fill="#22c55e" opacity="0.7"/>
  <rect x="1117" y="317" width="24" height="15" rx="7" fill="#f59e0b"/>
  <text x="1129" y="328" text-anchor="middle" font-size="9" font-weight="700" fill="#000">&#x26A1;</text>
  <text x="1017" y="335" text-anchor="middle" font-size="11" font-weight="700" fill="#4ade80">LLM-as-Judge Eval</text>
  <text x="1017" y="350" text-anchor="middle" font-size="8.5" fill="#6ee7b7">POCKET-604</text>
  <text x="1017" y="365" text-anchor="middle" font-size="9" fill="#a3e635">RAGAS-style Faithfulness + Relevance</text>
  <text x="1017" y="379" text-anchor="middle" font-size="9" fill="#86efac">local Ollama scoring</text>
  <rect x="902" y="392" width="230" height="18" rx="9" fill="#0a1628" stroke="#22c55e" stroke-width="0.8"/>
  <text x="1017" y="404" text-anchor="middle" font-size="8.5" fill="#4ade80" font-family="'Courier New',monospace">pocket eval --with-judge</text>

  <!-- Row 2: POCKET-605..607  x=192,470,748  w=260 h=108 -->

  <!-- 605 Schema JSON -->
  <rect x="192" y="434" width="260" height="108" rx="9" fill="url(#cd)" stroke="#22c55e" stroke-width="1.5" filter="url(#fs)"/>
  <rect x="194" y="435" width="4" height="90" rx="2" fill="#22c55e" opacity="0.7"/>
  <rect x="422" y="439" width="24" height="15" rx="7" fill="#f59e0b"/>
  <text x="434" y="450" text-anchor="middle" font-size="9" font-weight="700" fill="#000">&#x26A1;</text>
  <text x="322" y="457" text-anchor="middle" font-size="11" font-weight="700" fill="#4ade80">Schema JSON</text>
  <text x="322" y="472" text-anchor="middle" font-size="8.5" fill="#6ee7b7">POCKET-605</text>
  <text x="322" y="487" text-anchor="middle" font-size="9" fill="#a3e635">Ollama &#x2265; 0.3.0 · format:{schema}</text>
  <text x="322" y="501" text-anchor="middle" font-size="9" fill="#86efac">grammar-constrained decoding</text>
  <rect x="207" y="514" width="230" height="18" rx="9" fill="#0a1628" stroke="#22c55e" stroke-width="0.8"/>
  <text x="322" y="526" text-anchor="middle" font-size="8.5" fill="#4ade80" font-family="'Courier New',monospace">OllamaExtractor · format=schema</text>

  <!-- 606 LanceDB (planned) -->
  <rect x="470" y="434" width="260" height="108" rx="9" fill="url(#cp)" stroke="#4b5563" stroke-width="1.5" filter="url(#fs)"/>
  <rect x="472" y="435" width="4" height="90" rx="2" fill="#4b5563" opacity="0.65"/>
  <text x="600" y="457" text-anchor="middle" font-size="11" font-weight="700" fill="#d1d5db">LanceDB Connector</text>
  <text x="600" y="472" text-anchor="middle" font-size="8.5" fill="#9ca3af">POCKET-606</text>
  <text x="600" y="487" text-anchor="middle" font-size="9" fill="#9ca3af">Columnar vector store</text>
  <text x="600" y="501" text-anchor="middle" font-size="9" fill="#9ca3af">large corpora &gt; 1 M chunks</text>
  <rect x="485" y="514" width="230" height="18" rx="9" fill="#1f2937" stroke="#4b5563" stroke-width="0.8"/>
  <text x="600" y="526" text-anchor="middle" font-size="8.5" fill="#9ca3af" font-family="'Courier New',monospace">&#x23F3;  planned</text>

  <!-- 607 GraphRAG Community (planned) -->
  <rect x="748" y="434" width="260" height="108" rx="9" fill="url(#cp)" stroke="#4b5563" stroke-width="1.5" filter="url(#fs)"/>
  <rect x="750" y="435" width="4" height="90" rx="2" fill="#4b5563" opacity="0.65"/>
  <text x="878" y="457" text-anchor="middle" font-size="11" font-weight="700" fill="#d1d5db">GraphRAG Community</text>
  <text x="878" y="472" text-anchor="middle" font-size="8.5" fill="#9ca3af">POCKET-607</text>
  <text x="878" y="487" text-anchor="middle" font-size="9" fill="#9ca3af">Leiden algorithm · entity graph</text>
  <text x="878" y="501" text-anchor="middle" font-size="9" fill="#9ca3af">community-level summaries</text>
  <rect x="763" y="514" width="230" height="18" rx="9" fill="#1f2937" stroke="#4b5563" stroke-width="0.8"/>
  <text x="878" y="526" text-anchor="middle" font-size="8.5" fill="#9ca3af" font-family="'Courier New',monospace">&#x23F3;  planned</text>

  <!-- ══════ LEGEND ══════ -->
  <rect x="28" y="558" width="1144" height="42" rx="6" fill="#0a0f1e" stroke="#1e3a5f" stroke-width="1" opacity="0.9"/>
  <circle cx="72"  cy="579" r="7" fill="url(#gd)" filter="url(#fd)"/>
  <text x="87"  y="583" font-size="9.5" fill="#4ade80">&#x2705; done</text>
  <circle cx="165" cy="579" r="7" fill="url(#gn)" filter="url(#fn)"/>
  <text x="180" y="583" font-size="9.5" fill="#fcd34d">&#x23F3; next</text>
  <circle cx="258" cy="579" r="7" fill="url(#gp)" filter="url(#fp)"/>
  <text x="273" y="583" font-size="9.5" fill="#9ca3af">&#x23F3; planned</text>
  <circle cx="375" cy="579" r="7" fill="url(#gi)" filter="url(#fi)"/>
  <text x="390" y="583" font-size="9.5" fill="#fb923c">&#x1F6A7; in progress</text>
  <rect x="505" y="571" width="22" height="15" rx="7" fill="#f59e0b"/>
  <text x="516" y="582" text-anchor="middle" font-size="9" font-weight="700" fill="#000">&#x26A1;</text>
  <text x="534" y="583" font-size="9.5" fill="#fde68a">SOTA opt-in feature</text>
  <text x="900" y="583" text-anchor="middle" font-size="9" fill="#475569">docs/architecture/cocoindex-gap.md</text>

  <!-- footer line -->
  <text x="600" y="618" text-anchor="middle" font-size="8.5" fill="#334155">genome-pocket · 2026 · vector SVG — zoom freely</text>
</svg>
